<?xml version="1.0" encoding="UTF-8"?>
<svg id="_图层_1" data-name="图层_1" xmlns="http://www.w3.org/2000/svg" version="1.1" viewBox="0 0 300 55">
  <!-- Generator: Adobe Illustrator 29.1.0, SVG Export Plug-In . SVG Version: 2.1.0 Build 142)  -->
  <defs>
    <style>
      .st0 {
        fill: #004898;
      }
    </style>
  </defs>
  <path class="st0" d="M90.1,34.9h-28.3c.2,2.8,1.3,4.9,3.4,6.4,2.1,1.5,5.2,2.2,9.3,2.2s5.1-.4,7.6-1.3c2.4-.9,4.4-1.8,5.8-2.8h1.4v9.1c-2.8,1-5.4,1.8-7.9,2.2-2.5.5-5.2.7-8.2.7-7.7,0-13.6-1.6-17.7-4.8-4.1-3.2-6.1-7.7-6.1-13.6s1.9-10.5,5.8-13.9c3.9-3.4,9.2-5.1,16-5.1s10.9,1.5,14.1,4.4c3.1,2.9,4.7,7.1,4.7,12.6v4ZM77.8,28.2c0-2.4-.7-4.2-1.9-5.4-1.2-1.2-3.1-1.8-5.6-1.8s-4.3.6-5.8,1.7c-1.5,1.1-2.4,3-2.6,5.5h15.9Z"/>
  <path class="st0" d="M214.4,34.9h-28.3c.2,2.8,1.3,4.9,3.4,6.4,2.1,1.5,5.2,2.2,9.3,2.2s5.1-.4,7.6-1.3c2.4-.9,4.4-1.8,5.8-2.8h1.4v9.1c-2.8,1-5.4,1.8-7.9,2.2-2.5.5-5.2.7-8.2.7-7.7,0-13.6-1.6-17.7-4.8-4.1-3.2-6.1-7.7-6.1-13.6s1.9-10.5,5.8-13.9c3.9-3.4,9.2-5.1,16-5.1s10.9,1.5,14.1,4.4c3.1,2.9,4.7,7.1,4.7,12.6v4ZM202,28.2c0-2.4-.7-4.2-1.9-5.4-1.2-1.2-3.1-1.8-5.6-1.8s-4.3.6-5.8,1.7c-1.5,1.1-2.4,3-2.6,5.5h15.9Z"/>
  <path class="st0" d="M131.9,50.4h-12.4v-3.9c-2.3,1.6-4.3,2.8-6.2,3.6-1.9.8-4.1,1.2-6.7,1.2-4.2,0-7.5-1.1-9.7-3.4-2.3-2.2-3.4-5.6-3.4-10V15h12.4v17.6c0,1.8,0,3.3.2,4.5.1,1.2.4,2.2.9,3,.4.8,1.1,1.3,1.9,1.7.9.4,2.1.5,3.6.5s2.2-.2,3.5-.5c1.3-.4,2.5-.9,3.7-1.6V15h12.4v35.4Z"/>
  <path class="st0" d="M261.5,3.6h12.4v16.4c2.3-1.6,4.3-2.8,6.2-3.6,1.9-.8,4.1-1.2,6.7-1.2,4.2,0,7.5,1.1,9.7,3.4,2.3,2.2,3.4,5.6,3.4,10v23.1h-12.4v-17.6c0-1.8,0-3.3-.2-4.5-.1-1.2-.4-2.2-.9-3-.4-.8-1.1-1.3-1.9-1.7-.9-.4-2.1-.5-3.6-.5s-2.2.2-3.5.5c-1.3.4-2.5.9-3.7,1.6v25.1h-12.4V3.6Z"/>
  <path class="st0" d="M135.2,22.7h11.4v17.6c0,2.6.9,4.8.9,4.8,1.8,4.9,7.4,5.8,7.4,5.8,8.8,1.6,15.6-.5,15.6-.5v-7.7h-1.2c-2.4,1.2-4.9,1-4.9,1-5.4.2-5.3-4.6-5.3-4.6v-16.3h11.4v-7.8h-11.4V4.9h-1.2l-11.3,4.9v5.2h-11.4s0,7.7,0,7.7Z"/>
  <path class="st0" d="M242.8,13.4c-3.3,0-6.5.4-9.5,1.1-3,.7-5.7,1.8-7.9,3.3-2.3,1.5-4.1,3.6-5.5,6-1.3,2.4-2,5.4-2,8.8s.6,6,1.9,8.4c1.2,2.3,3,4.3,5.2,5.9,2.2,1.6,4.9,2.7,8,3.5,3.1.8,6.5,1.1,10.3,1.1s3.5,0,4.7-.2c1.2-.2,2.5-.4,3.9-.7,1.1-.2,2.2-.5,3.2-.9l2.5-.9v-9h-1c-.5.4-1,.8-1.6,1.2-.7.5-1.6,1-2.5,1.5-1,.5-2.2.9-3.6,1.2-1.4.3-3.1.5-4.9.5-3.7,0-6.7-1-8.9-2.9-2.3-1.9-3.4-4.9-3.4-8.7s1.1-6.5,3.2-8.7c2.1-2.2,5.1-3.3,8.9-3.3s3.2.2,4.5.5c1.3.3,2.6.7,3.6,1.2,1,.4,1.9,1,2.8,1.5.8.5,1.4.9,2,1.4h1v-9c-2.4-.9-4.8-1.6-7.2-2.1-2.5-.5-5-.7-7.5-.7Z"/>
  <polygon class="st0" points="46.3 50.4 33.7 50.4 12 18.2 12 50.4 0 50.4 0 3.5 15.7 3.5 34.3 30.4 34.3 3.5 46.3 3.5 46.3 50.4"/>
</svg>